<?xml version="1.0" encoding="UTF-8"?>
<svg width="133px" height="34px" viewBox="0 0 133 34" version="1.1" 
  xmlns="http://www.w3.org/2000/svg" 
  xmlns:xlink="http://www.w3.org/1999/xlink">
  <!-- Generator: Sketch 43.2 (39069) - http://www.bohemiancoding.com/sketch -->
  <title>Listen On Apple Podcasts</title>
  <desc>Created with Sketch.</desc>
  <defs>
    <linearGradient x1="50%" y1="0%" x2="50%" y2="100.000447%" id="linearGradient-1">
      <stop stop-color="#F452FF" offset="0%"></stop>
      <stop stop-color="#832BC1" offset="100%"></stop>
    </linearGradient>
  </defs>
  <g id="Page-1" stroke="none" stroke-width="1" fill="none" fill-rule="evenodd">
    <g id="button-apple-3">
      <g id="XMLID_24_">
        <path d="M132.781,9.079 C132.781,8.749 132.781,8.419 132.777,8.089 C132.753,7.369 132.71,6.648 132.579,5.937 C132.456,5.216 132.241,4.544 131.912,3.89 C131.58,3.246 131.153,2.656 130.641,2.147 C130.134,1.638 129.544,1.21 128.903,0.881 C128.243,0.548 127.573,0.332 126.851,0.206 C126.145,0.078 125.422,0.035 124.702,0.017 C124.373,0.012 124.038,0.006 123.71,0.003 C123.324,0 122.932,0 122.546,0 L10.25,0 C9.857,0 9.467,0 9.074,0.002 C8.745,0.005 8.418,0.011 8.086,0.016 C7.37,0.035 6.646,0.078 5.932,0.206 C5.212,0.333 4.543,0.548 3.888,0.881 C3.244,1.21 2.656,1.639 2.148,2.148 C1.633,2.656 1.207,3.246 0.881,3.89 C0.547,4.544 0.334,5.216 0.209,5.937 C0.079,6.648 0.035,7.369 0.016,8.089 C0.006,8.419 0.005,8.749 0,9.079 L0,10.252 L0,23.761 L0,24.938 C0.005,25.271 0.006,25.596 0.016,25.928 C0.034,26.649 0.079,27.37 0.209,28.081 C0.334,28.802 0.547,29.476 0.881,30.128 C1.207,30.769 1.633,31.359 2.147,31.864 C2.656,32.377 3.243,32.805 3.888,33.13 C4.543,33.467 5.212,33.679 5.932,33.809 C6.646,33.938 7.37,33.98 8.086,34 C8.418,34.007 8.745,34.011 9.074,34.011 C9.467,34.013 9.857,34.013 10.251,34.013 L122.546,34.013 C122.932,34.013 123.324,34.013 123.711,34.011 C124.039,34.011 124.373,34.007 124.703,34 C125.423,33.98 126.146,33.938 126.852,33.809 C127.574,33.679 128.244,33.467 128.904,33.13 C129.546,32.804 130.136,32.377 130.642,31.864 C131.154,31.359 131.581,30.769 131.913,30.128 C132.242,29.476 132.456,28.802 132.58,28.081 C132.711,27.37 132.754,26.649 132.778,25.928 C132.782,25.596 132.782,25.271 132.782,24.938 C132.792,24.547 132.792,24.159 132.792,23.761 L132.792,10.253 C132.791,9.86 132.791,9.469 132.781,9.079 Z" id="XMLID_43_" fill="#777878" fill-rule="nonzero"></path>
        <path d="M132.125,23.761 C132.125,24.153 132.125,24.536 132.116,24.938 C132.116,25.266 132.116,25.591 132.111,25.908 C132.093,26.529 132.054,27.258 131.924,27.968 C131.809,28.638 131.611,29.247 131.321,29.823 C131.017,30.408 130.633,30.938 130.169,31.399 C129.711,31.858 129.184,32.243 128.599,32.542 C128.03,32.832 127.418,33.033 126.734,33.157 C126.024,33.282 125.299,33.318 124.689,33.337 C124.361,33.343 124.033,33.348 123.706,33.348 C123.32,33.35 122.929,33.35 122.545,33.35 L10.25,33.35 C9.858,33.35 9.469,33.35 9.073,33.348 C8.748,33.348 8.426,33.344 8.105,33.337 C7.488,33.319 6.762,33.283 6.047,33.157 C5.365,33.034 4.757,32.832 4.189,32.542 C3.609,32.248 3.082,31.861 2.614,31.393 C2.155,30.938 1.772,30.411 1.472,29.826 C1.182,29.255 0.983,28.648 0.861,27.961 C0.727,27.225 0.694,26.48 0.68,25.908 C0.672,25.681 0.669,25.452 0.667,25.223 L0.663,24.938 L0.663,23.761 L0.663,10.253 L0.663,9.088 L0.669,8.79 C0.671,8.564 0.674,8.336 0.682,8.105 C0.696,7.538 0.729,6.793 0.864,6.052 C0.984,5.367 1.183,4.76 1.475,4.19 C1.773,3.603 2.156,3.076 2.619,2.618 C3.083,2.154 3.611,1.77 4.191,1.473 C4.766,1.181 5.375,0.978 6.047,0.859 C6.777,0.73 7.529,0.697 8.097,0.679 L9.074,0.665 C9.468,0.662 9.858,0.662 10.249,0.662 L122.544,0.662 C122.928,0.662 123.319,0.662 123.703,0.665 L123.757,0.667 L124.681,0.679 C125.256,0.696 126.008,0.73 126.732,0.859 C127.408,0.978 128.017,1.18 128.597,1.473 C129.181,1.771 129.709,2.155 130.168,2.618 C130.63,3.079 131.014,3.607 131.315,4.189 C131.608,4.768 131.807,5.378 131.921,6.058 C132.051,6.759 132.09,7.49 132.108,8.103 C132.113,8.428 132.113,8.754 132.113,9.092 C132.122,9.479 132.122,9.863 132.122,10.252 L132.122,23.761 L132.125,23.761 Z" id="XMLID_42_" fill="#FFFFFF" fill-rule="nonzero"></path>
        <g id="XMLID_30_" transform="translate(6.000000, 5.000000)">
          <g id="XMLID_25_">
            <path d="M22.244,20.22 C22.026,20.773 21.524,21.551 20.812,22.1 C20.401,22.417 19.91,22.719 19.235,22.919 C18.516,23.132 17.631,23.204 16.529,23.204 L6.452,23.204 C5.35,23.204 4.465,23.132 3.746,22.919 C3.072,22.719 2.581,22.416 2.169,22.1 C1.457,21.552 0.954,20.773 0.737,20.22 C0.299,19.106 0.294,17.842 0.294,17.046 L0.294,17.046 L0.294,6.969 L0.294,6.969 C0.294,6.173 0.298,4.909 0.737,3.795 C0.955,3.242 1.457,2.464 2.169,1.915 C2.58,1.599 3.071,1.296 3.746,1.096 C4.465,0.883 5.35,0.811 6.452,0.811 L6.452,0.811 L16.529,0.811 L16.529,0.811 C17.631,0.811 18.516,0.883 19.235,1.096 C19.909,1.296 20.4,1.599 20.812,1.915 C21.524,2.463 22.027,3.242 22.244,3.795 C22.682,4.909 22.687,6.173 22.687,6.969 L22.687,17.046 C22.687,17.842 22.683,19.106 22.244,20.22 Z" id="XMLID_40_" fill="url(#linearGradient-1)"></path>
            <path d="M22.244,20.22 C22.026,20.773 21.524,21.551 20.812,22.1 C20.401,22.417 19.91,22.719 19.235,22.919 C18.516,23.132 17.631,23.204 16.529,23.204 L6.452,23.204 C5.35,23.204 4.465,23.132 3.746,22.919 C3.072,22.719 2.581,22.416 2.169,22.1 C1.457,21.552 0.954,20.773 0.737,20.22 C0.299,19.106 0.294,17.842 0.294,17.046 L0.294,17.046 L0.294,6.969 L0.294,6.969 C0.294,6.173 0.298,4.909 0.737,3.795 C0.955,3.242 1.457,2.464 2.169,1.915 C2.58,1.599 3.071,1.296 3.746,1.096 C4.465,0.883 5.35,0.811 6.452,0.811 L6.452,0.811 L16.529,0.811 L16.529,0.811 C17.631,0.811 18.516,0.883 19.235,1.096 C19.909,1.296 20.4,1.599 20.812,1.915 C21.524,2.463 22.027,3.242 22.244,3.795 C22.682,4.909 22.687,6.173 22.687,6.969 L22.687,17.046 C22.687,17.842 22.683,19.106 22.244,20.22 Z" id="XMLID_38_"></path>
            <g id="XMLID_26_" transform="translate(3.000000, 3.000000)" fill-rule="nonzero" fill="#FFFFFF">
              <path d="M10.114,10.682 C9.778,10.328 9.188,10.1 8.491,10.1 C7.794,10.1 7.204,10.327 6.868,10.682 C6.693,10.867 6.6,11.057 6.571,11.327 C6.514,11.85 6.546,12.301 6.607,13.021 C6.665,13.707 6.776,14.622 6.921,15.555 C7.024,16.218 7.108,16.576 7.184,16.833 C7.307,17.248 7.769,17.612 8.491,17.612 C9.213,17.612 9.674,17.249 9.798,16.833 C9.874,16.577 9.958,16.219 10.061,15.555 C10.206,14.623 10.317,13.708 10.375,13.021 C10.436,12.301 10.468,11.85 10.411,11.327 C10.383,11.057 10.29,10.867 10.114,10.682 Z M6.661,7.525 C6.661,8.537 7.481,9.358 8.494,9.358 C9.507,9.358 10.327,8.538 10.327,7.525 C10.327,6.513 9.506,5.692 8.494,5.692 C7.482,5.692 6.661,6.513 6.661,7.525 Z M8.471,0.293 C4.185,0.305 0.673,3.782 0.62,8.068 C0.577,11.54 2.793,14.51 5.888,15.598 C5.963,15.624 6.039,15.562 6.028,15.483 C5.987,15.214 5.949,14.943 5.914,14.676 C5.902,14.582 5.842,14.501 5.755,14.463 C3.309,13.394 1.601,10.941 1.628,8.1 C1.664,4.371 4.709,1.331 8.438,1.3 C12.25,1.269 15.362,4.362 15.362,8.167 C15.362,10.98 13.661,13.403 11.234,14.463 C11.147,14.501 11.087,14.582 11.075,14.676 C11.04,14.942 11.002,15.213 10.961,15.482 C10.949,15.561 11.025,15.623 11.1,15.597 C14.165,14.519 16.369,11.595 16.369,8.166 C16.368,3.818 12.823,0.28 8.471,0.293 Z M8.328,3.906 C10.758,3.812 12.764,5.761 12.764,8.17 C12.764,9.395 12.245,10.501 11.415,11.281 C11.345,11.347 11.307,11.441 11.312,11.537 C11.328,11.83 11.322,12.115 11.303,12.436 C11.298,12.522 11.394,12.576 11.465,12.528 C12.856,11.577 13.771,9.979 13.771,8.17 C13.771,5.192 11.29,2.782 8.287,2.899 C5.496,3.007 3.256,5.308 3.221,8.102 C3.198,9.939 4.118,11.566 5.527,12.529 C5.598,12.577 5.694,12.522 5.688,12.437 C5.668,12.115 5.662,11.83 5.679,11.537 C5.684,11.441 5.647,11.347 5.576,11.281 C4.72,10.478 4.195,9.327 4.229,8.056 C4.29,5.819 6.093,3.992 8.328,3.906 Z" id="Shape"></path>
            </g>
          </g>
        </g>
      </g>
      <path d="M132.125,23.761 C132.125,24.153 132.125,24.536 132.116,24.938 C132.116,25.266 132.116,25.591 132.111,25.908 C132.093,26.529 132.054,27.258 131.924,27.968 C131.809,28.638 131.611,29.247 131.321,29.823 C131.017,30.408 130.633,30.938 130.169,31.399 C129.711,31.858 129.184,32.243 128.599,32.542 C128.03,32.832 127.418,33.033 126.734,33.157 C126.024,33.282 125.299,33.318 124.689,33.337 C124.361,33.343 124.033,33.348 123.706,33.348 C123.32,33.35 122.929,33.35 122.545,33.35 L10.25,33.35 C9.858,33.35 9.469,33.35 9.073,33.348 C8.748,33.348 8.426,33.344 8.105,33.337 C7.488,33.319 6.762,33.283 6.047,33.157 C5.365,33.034 4.757,32.832 4.189,32.542 C3.609,32.248 3.082,31.861 2.614,31.393 C2.155,30.938 1.772,30.411 1.472,29.826 C1.182,29.255 0.983,28.648 0.861,27.961 C0.727,27.225 0.694,26.48 0.68,25.908 C0.672,25.681 0.669,25.452 0.667,25.223 L0.663,24.938 L0.663,23.761 L0.663,10.253 L0.663,9.088 L0.669,8.79 C0.671,8.564 0.674,8.336 0.682,8.105 C0.696,7.538 0.729,6.793 0.864,6.052 C0.984,5.367 1.183,4.76 1.475,4.19 C1.773,3.603 2.156,3.076 2.619,2.618 C3.083,2.154 3.611,1.77 4.191,1.473 C4.766,1.181 5.375,0.978 6.047,0.859 C6.777,0.73 7.529,0.697 8.097,0.679 L9.074,0.665 C9.468,0.662 9.858,0.662 10.249,0.662 L122.544,0.662 C122.928,0.662 123.319,0.662 123.703,0.665 L123.757,0.667 L124.681,0.679 C125.256,0.696 126.008,0.73 126.732,0.859 C127.408,0.978 128.017,1.18 128.597,1.473 C129.181,1.771 129.709,2.155 130.168,2.618 C130.63,3.079 131.014,3.607 131.315,4.189 C131.608,4.768 131.807,5.378 131.921,6.058 C132.051,6.759 132.09,7.49 132.108,8.103 C132.113,8.428 132.113,8.754 132.113,9.092 C132.122,9.479 132.122,9.863 132.122,10.252 L132.122,23.761 L132.125,23.761 Z" id="XMLID_22_" fill="#FFFFFF" fill-rule="nonzero"></path>
      <g id="XMLID_61_" transform="translate(32.000000, 6.000000)" fill-rule="nonzero">
        <g id="Group" transform="translate(1.000000, 0.000000)" fill="#777878">
          <polygon id="Shape" points="4.179 7.029 0.262 7.029 0.262 0.578 1.067 0.578 1.067 6.305 4.179 6.305"></polygon>
          <path d="M5.158,1.114 C5.158,0.846 5.377,0.631 5.641,0.631 C5.909,0.631 6.128,0.846 6.128,1.114 C6.128,1.378 5.909,1.597 5.641,1.597 C5.377,1.597 5.158,1.378 5.158,1.114 Z M5.252,2.379 L6.03,2.379 L6.03,7.029 L5.252,7.029 L5.252,2.379 Z" id="Shape"></path>
          <path d="M9.007,2.339 C9.964,2.339 10.684,2.902 10.711,3.676 L9.969,3.676 C9.924,3.242 9.549,2.974 8.981,2.974 C8.418,2.974 8.038,3.243 8.038,3.641 C8.038,3.954 8.284,4.16 8.811,4.293 L9.531,4.467 C10.47,4.704 10.809,5.035 10.809,5.71 C10.809,6.51 10.04,7.074 8.958,7.074 C7.943,7.074 7.219,6.529 7.147,5.715 L7.925,5.715 C8.001,6.189 8.381,6.439 9.007,6.439 C9.633,6.439 10.027,6.18 10.027,5.769 C10.027,5.447 9.835,5.277 9.312,5.139 L8.494,4.929 C7.676,4.719 7.274,4.307 7.274,3.681 C7.272,2.893 7.988,2.339 9.007,2.339 Z" id="Shape"></path>
          <path d="M12.911,1.257 L12.911,2.379 L13.814,2.379 L13.814,3.019 L12.911,3.019 L12.911,5.777 C12.911,6.202 13.09,6.394 13.488,6.394 C13.577,6.394 13.756,6.38 13.81,6.372 L13.81,7.025 C13.716,7.047 13.501,7.061 13.318,7.061 C12.464,7.061 12.133,6.712 12.133,5.818 L12.133,3.019 L11.44,3.019 L11.44,2.379 L12.133,2.379 L12.133,1.257 L12.911,1.257 Z" id="Shape"></path>
          <path d="M18.627,5.697 C18.498,6.502 17.688,7.074 16.691,7.074 C15.377,7.074 14.549,6.166 14.549,4.722 C14.549,3.278 15.381,2.335 16.654,2.335 C17.902,2.335 18.684,3.211 18.684,4.62 L18.684,4.915 L15.349,4.915 L15.349,4.96 C15.349,5.832 15.89,6.399 16.708,6.399 C17.28,6.399 17.732,6.126 17.861,5.697 L18.627,5.697 Z M15.355,4.307 L17.881,4.307 C17.863,3.529 17.367,3.011 16.643,3.011 C15.923,3.01 15.404,3.533 15.355,4.307 Z" id="Shape"></path>
          <path d="M19.737,2.379 L20.47,2.379 L20.47,3.139 L20.488,3.139 C20.779,2.607 21.243,2.334 21.963,2.334 C22.983,2.334 23.573,2.991 23.573,4.046 L23.573,7.028 L22.795,7.028 L22.795,4.185 C22.795,3.434 22.446,3.022 21.722,3.022 C20.971,3.022 20.515,3.545 20.515,4.332 L20.515,7.028 L19.737,7.028 L19.737,2.379 Z" id="Shape"></path>
          <path d="M26.751,4.705 C26.751,3.256 27.591,2.335 28.906,2.335 C30.216,2.335 31.056,3.256 31.056,4.705 C31.056,6.149 30.216,7.075 28.906,7.075 C27.592,7.074 26.751,6.148 26.751,4.705 Z M30.265,4.705 C30.265,3.645 29.76,3.019 28.906,3.019 C28.048,3.019 27.542,3.649 27.542,4.705 C27.542,5.765 28.052,6.391 28.906,6.391 C29.76,6.391 30.265,5.764 30.265,4.705 Z" id="Shape"></path>
          <path d="M32.108,2.379 L32.841,2.379 L32.841,3.139 L32.859,3.139 C33.15,2.607 33.614,2.334 34.334,2.334 C35.354,2.334 35.944,2.991 35.944,4.046 L35.944,7.028 L35.166,7.028 L35.166,4.185 C35.166,3.434 34.817,3.022 34.093,3.022 C33.342,3.022 32.886,3.545 32.886,4.332 L32.886,7.028 L32.108,7.028 L32.108,2.379 Z" id="Shape"></path>
        </g>
        <g id="Group" transform="translate(0.000000, 11.000000)" fill="#000000">
          <path d="M6.607,7.395 L2.956,7.395 L2.08,9.984 L0.533,9.984 L3.991,0.406 L5.597,0.406 L9.055,9.984 L7.482,9.984 L6.607,7.395 Z M3.335,6.201 L6.229,6.201 L4.802,1.999 L4.762,1.999 L3.335,6.201 Z" id="Shape"></path>
          <path d="M16.698,6.493 C16.698,8.663 15.536,10.057 13.784,10.057 C12.788,10.057 11.999,9.612 11.587,8.835 L11.554,8.835 L11.554,12.293 L10.12,12.293 L10.12,3 L11.507,3 L11.507,4.162 L11.533,4.162 C11.931,3.412 12.781,2.928 13.757,2.928 C15.529,2.929 16.698,4.329 16.698,6.493 Z M15.224,6.493 C15.224,5.079 14.494,4.15 13.379,4.15 C12.284,4.15 11.547,5.099 11.547,6.493 C11.547,7.9 12.284,8.843 13.379,8.843 C14.494,8.843 15.224,7.92 15.224,6.493 Z" id="Shape"></path>
          <path d="M24.437,6.493 C24.437,8.663 23.275,10.057 21.523,10.057 C20.527,10.057 19.738,9.612 19.326,8.835 L19.293,8.835 L19.293,12.293 L17.859,12.293 L17.859,3 L19.246,3 L19.246,4.162 L19.272,4.162 C19.67,3.412 20.52,2.928 21.496,2.928 C23.268,2.929 24.437,4.329 24.437,6.493 Z M22.963,6.493 C22.963,5.079 22.233,4.15 21.118,4.15 C20.023,4.15 19.286,5.099 19.286,6.493 C19.286,7.9 20.023,8.843 21.118,8.843 C22.233,8.843 22.963,7.92 22.963,6.493 Z" id="Shape"></path>
          <polygon id="Shape" points="25.651 0.406 27.085 0.406 27.085 9.984 25.651 9.984"></polygon>
          <path d="M34.841,7.934 C34.649,9.202 33.414,10.071 31.834,10.071 C29.803,10.071 28.542,8.71 28.542,6.527 C28.542,4.337 29.81,2.916 31.774,2.916 C33.706,2.916 34.92,4.243 34.92,6.361 L34.92,6.852 L29.988,6.852 L29.988,6.938 C29.988,8.133 30.738,8.916 31.866,8.916 C32.662,8.916 33.286,8.538 33.479,7.934 L34.841,7.934 Z M29.996,5.849 L33.487,5.849 C33.454,4.78 32.77,4.077 31.775,4.077 C30.786,4.077 30.069,4.794 29.996,5.849 Z" id="Shape"></path>
          <path d="M43.093,0.406 C44.951,0.406 46.246,1.687 46.246,3.552 C46.246,5.424 44.925,6.711 43.047,6.711 L40.989,6.711 L40.989,9.983 L39.502,9.983 L39.502,0.405 L43.093,0.405 L43.093,0.406 Z M40.989,5.464 L42.695,5.464 C43.989,5.464 44.726,4.767 44.726,3.559 C44.726,2.351 43.989,1.661 42.702,1.661 L40.99,1.661 L40.99,5.464 L40.989,5.464 Z" id="Shape"></path>
          <path d="M46.918,6.493 C46.918,4.296 48.212,2.915 50.23,2.915 C52.254,2.915 53.542,4.295 53.542,6.493 C53.542,8.697 52.261,10.071 50.23,10.071 C48.199,10.071 46.918,8.697 46.918,6.493 Z M52.082,6.493 C52.082,4.986 51.392,4.097 50.23,4.097 C49.068,4.097 48.378,4.993 48.378,6.493 C48.378,8.006 49.068,8.889 50.23,8.889 C51.392,8.889 52.082,8.006 52.082,6.493 Z" id="Shape"></path>
          <path d="M54.535,6.493 C54.535,4.336 55.723,2.929 57.455,2.929 C58.457,2.929 59.247,3.393 59.645,4.163 L59.671,4.163 L59.671,0.406 L61.111,0.406 L61.111,9.984 L59.717,9.984 L59.717,8.796 L59.691,8.796 C59.279,9.592 58.483,10.057 57.467,10.057 C55.723,10.058 54.535,8.65 54.535,6.493 Z M56.002,6.493 C56.002,7.927 56.732,8.843 57.847,8.843 C58.949,8.843 59.685,7.914 59.685,6.493 C59.685,5.086 58.948,4.15 57.847,4.15 C56.732,4.15 56.002,5.073 56.002,6.493 Z" id="Shape"></path>
          <path d="M67.333,5.404 C67.207,4.667 66.629,4.116 65.687,4.116 C64.585,4.116 63.855,5.039 63.855,6.492 C63.855,7.979 64.592,8.875 65.7,8.875 C66.59,8.875 67.174,8.43 67.333,7.621 L68.714,7.621 C68.554,9.088 67.38,10.07 65.687,10.07 C63.696,10.07 62.395,8.709 62.395,6.492 C62.395,4.322 63.696,2.914 65.674,2.914 C67.466,2.914 68.581,4.042 68.701,5.403 L67.333,5.403 L67.333,5.404 Z" id="Shape"></path>
          <path d="M69.621,7.986 C69.621,6.765 70.557,6.048 72.296,5.942 L74.154,5.836 L74.154,5.305 C74.154,4.515 73.63,4.091 72.72,4.091 C71.97,4.091 71.419,4.476 71.306,5.073 L69.965,5.073 C70.005,3.825 71.173,2.916 72.76,2.916 C74.472,2.916 75.58,3.812 75.58,5.199 L75.58,9.985 L74.207,9.985 L74.207,8.837 L74.174,8.837 C73.782,9.587 72.912,10.085 71.97,10.085 C70.583,10.084 69.621,9.227 69.621,7.986 Z M74.154,7.369 L74.154,6.831 L72.481,6.937 C71.552,6.99 71.061,7.349 71.061,7.953 C71.061,8.537 71.572,8.949 72.369,8.949 C73.385,8.949 74.154,8.272 74.154,7.369 Z" id="Shape"></path>
          <path d="M79.773,2.922 C81.319,2.922 82.427,3.778 82.461,5.013 L81.114,5.013 C81.053,4.396 80.53,4.017 79.733,4.017 C78.957,4.017 78.439,4.375 78.439,4.92 C78.439,5.338 78.784,5.617 79.507,5.796 L80.682,6.068 C82.089,6.406 82.62,6.924 82.62,7.946 C82.62,9.207 81.425,10.07 79.719,10.07 C78.073,10.07 76.965,9.227 76.859,7.952 L78.279,7.952 C78.379,8.622 78.917,8.981 79.786,8.981 C80.642,8.981 81.181,8.629 81.181,8.072 C81.181,7.64 80.915,7.408 80.185,7.222 L78.937,6.917 C77.676,6.611 77.039,5.968 77.039,4.999 C77.038,3.765 78.146,2.922 79.773,2.922 Z" id="Shape"></path>
          <path d="M85.791,1.349 L85.791,3.001 L87.118,3.001 L87.118,4.136 L85.791,4.136 L85.791,7.986 C85.791,8.584 86.057,8.862 86.641,8.862 C86.787,8.862 87.019,8.842 87.112,8.829 L87.112,9.957 C86.953,9.997 86.634,10.023 86.316,10.023 C84.902,10.023 84.351,9.492 84.351,8.138 L84.351,4.136 L83.335,4.136 L83.335,3.001 L84.351,3.001 L84.351,1.349 L85.791,1.349 Z" id="Shape"></path>
          <path d="M90.965,2.922 C92.511,2.922 93.619,3.778 93.653,5.013 L92.306,5.013 C92.245,4.396 91.722,4.017 90.925,4.017 C90.149,4.017 89.631,4.375 89.631,4.92 C89.631,5.338 89.976,5.617 90.699,5.796 L91.874,6.068 C93.281,6.406 93.812,6.924 93.812,7.946 C93.812,9.207 92.617,10.07 90.911,10.07 C89.265,10.07 88.157,9.227 88.051,7.952 L89.471,7.952 C89.571,8.622 90.109,8.981 90.978,8.981 C91.834,8.981 92.373,8.629 92.373,8.072 C92.373,7.64 92.107,7.408 91.377,7.222 L90.129,6.917 C88.868,6.611 88.231,5.968 88.231,4.999 C88.229,3.765 89.338,2.922 90.965,2.922 Z" id="Shape"></path>
        </g>
      </g>
      <g id="XMLID_5_" transform="translate(6.000000, 5.000000)">
        <g id="XMLID_6_">
          <path d="M22.244,20.22 C22.026,20.773 21.524,21.551 20.812,22.1 C20.401,22.417 19.91,22.719 19.235,22.919 C18.516,23.132 17.631,23.204 16.529,23.204 L6.452,23.204 C5.35,23.204 4.465,23.132 3.746,22.919 C3.072,22.719 2.581,22.416 2.169,22.1 C1.457,21.552 0.954,20.773 0.737,20.22 C0.299,19.106 0.294,17.842 0.294,17.046 L0.294,17.046 L0.294,6.969 L0.294,6.969 C0.294,6.173 0.298,4.909 0.737,3.795 C0.955,3.242 1.457,2.464 2.169,1.915 C2.58,1.599 3.071,1.296 3.746,1.096 C4.465,0.883 5.35,0.811 6.452,0.811 L6.452,0.811 L16.529,0.811 L16.529,0.811 C17.631,0.811 18.516,0.883 19.235,1.096 C19.909,1.296 20.4,1.599 20.812,1.915 C21.524,2.463 22.027,3.242 22.244,3.795 C22.682,4.909 22.687,6.173 22.687,6.969 L22.687,17.046 C22.687,17.842 22.683,19.106 22.244,20.22 Z" id="XMLID_20_" fill="url(#linearGradient-1)"></path>
          <path d="M22.244,20.22 C22.026,20.773 21.524,21.551 20.812,22.1 C20.401,22.417 19.91,22.719 19.235,22.919 C18.516,23.132 17.631,23.204 16.529,23.204 L6.452,23.204 C5.35,23.204 4.465,23.132 3.746,22.919 C3.072,22.719 2.581,22.416 2.169,22.1 C1.457,21.552 0.954,20.773 0.737,20.22 C0.299,19.106 0.294,17.842 0.294,17.046 L0.294,17.046 L0.294,6.969 L0.294,6.969 C0.294,6.173 0.298,4.909 0.737,3.795 C0.955,3.242 1.457,2.464 2.169,1.915 C2.58,1.599 3.071,1.296 3.746,1.096 C4.465,0.883 5.35,0.811 6.452,0.811 L6.452,0.811 L16.529,0.811 L16.529,0.811 C17.631,0.811 18.516,0.883 19.235,1.096 C19.909,1.296 20.4,1.599 20.812,1.915 C21.524,2.463 22.027,3.242 22.244,3.795 C22.682,4.909 22.687,6.173 22.687,6.969 L22.687,17.046 C22.687,17.842 22.683,19.106 22.244,20.22 Z" id="XMLID_18_"></path>
          <g id="XMLID_7_" transform="translate(3.000000, 3.000000)" fill-rule="nonzero" fill="#FFFFFF">
            <path d="M10.114,10.682 C9.778,10.328 9.188,10.1 8.491,10.1 C7.794,10.1 7.204,10.327 6.868,10.682 C6.693,10.867 6.6,11.057 6.571,11.327 C6.514,11.85 6.546,12.301 6.607,13.021 C6.665,13.707 6.776,14.622 6.921,15.555 C7.024,16.218 7.108,16.576 7.184,16.833 C7.307,17.248 7.769,17.612 8.491,17.612 C9.213,17.612 9.674,17.249 9.798,16.833 C9.874,16.577 9.958,16.219 10.061,15.555 C10.206,14.623 10.317,13.708 10.375,13.021 C10.436,12.301 10.468,11.85 10.412,11.327 C10.383,11.057 10.29,10.867 10.114,10.682 Z M6.661,7.525 C6.661,8.537 7.481,9.358 8.494,9.358 C9.507,9.358 10.327,8.538 10.327,7.525 C10.327,6.513 9.506,5.692 8.494,5.692 C7.482,5.692 6.661,6.513 6.661,7.525 Z M8.471,0.293 C4.185,0.305 0.673,3.782 0.62,8.068 C0.577,11.54 2.793,14.51 5.888,15.598 C5.963,15.624 6.039,15.562 6.028,15.483 C5.987,15.214 5.949,14.943 5.914,14.676 C5.902,14.582 5.842,14.501 5.755,14.463 C3.309,13.394 1.601,10.941 1.628,8.1 C1.664,4.371 4.709,1.331 8.438,1.3 C12.25,1.269 15.362,4.362 15.362,8.167 C15.362,10.98 13.661,13.403 11.234,14.463 C11.147,14.501 11.087,14.582 11.075,14.676 C11.04,14.942 11.002,15.213 10.961,15.482 C10.949,15.561 11.025,15.623 11.101,15.597 C14.166,14.519 16.369,11.595 16.369,8.166 C16.368,3.818 12.823,0.28 8.471,0.293 Z M8.328,3.906 C10.758,3.812 12.764,5.761 12.764,8.17 C12.764,9.395 12.245,10.501 11.415,11.281 C11.345,11.347 11.307,11.441 11.312,11.537 C11.328,11.83 11.322,12.115 11.303,12.436 C11.298,12.522 11.394,12.576 11.465,12.528 C12.856,11.577 13.771,9.979 13.771,8.17 C13.771,5.192 11.29,2.782 8.287,2.899 C5.496,3.007 3.256,5.308 3.221,8.102 C3.198,9.939 4.118,11.566 5.527,12.529 C5.598,12.577 5.694,12.522 5.688,12.437 C5.668,12.115 5.662,11.83 5.679,11.537 C5.684,11.441 5.647,11.347 5.576,11.281 C4.72,10.478 4.195,9.327 4.229,8.056 C4.29,5.819 6.093,3.992 8.328,3.906 Z" id="Shape"></path>
          </g>
        </g>
      </g>
    </g>
  </g>
</svg>