<?xml version="1.0" encoding="UTF-8"?>
<svg width="600px" height="600px" viewBox="0 0 600 600" version="1.1" xmlns="http://www.w3.org/2000/svg" xmlns:xlink="http://www.w3.org/1999/xlink">
    <!-- Generator: Sketch 52.4 (67378) - http://www.bohemiancoding.com/sketch -->
    <title>final</title>
    <desc>Created with Sketch.</desc>
    <defs>
        <linearGradient x1="10.333282%" y1="77.218673%" x2="69.4340748%" y2="8.75827432%" id="linearGradient-1">
            <stop stop-color="#3023AE" offset="0%"></stop>
            <stop stop-color="#C86DD7" offset="100%"></stop>
        </linearGradient>
    </defs>
    <g id="final" stroke="none" stroke-width="1" fill="none" fill-rule="evenodd">
        <rect fill="#000000" x="0" y="0" width="600" height="600"></rect>
        <g id="noun_1281796_cc" transform="translate(0.000000, 50.000000)">
            <path d="M512.760709,230.90905 L550,180.360409 L440.203749,147.280209 L409.40619,0 L316.474313,75.3936393 L300.223711,63.4339177 L270.217745,97.450823 L113.935479,50.0468353 L148.323888,214.494402 L99.640915,255.603506 L111.233738,268.756412 L50,333.550783 L183.658766,370.467015 L211.525136,500 L288.716931,440.809135 L316.112934,466.992283 L360.981346,414.174361 L499.923135,451.748517 L472.343574,309.41389 L544.739922,256.83572 L512.760709,230.90905 Z M410.932015,340.72104 L362.931648,287.195013 L515.16417,265.020741 L410.932015,340.72104 Z M279.039993,138.130604 L279.235023,137.645524 L348.407636,171.930059 L267.412753,169.409876 L279.039993,138.130604 Z M255.274993,170.697846 L223.92676,186.159062 L263.007365,149.906329 L255.274993,170.697846 Z M252.745336,183.895357 L236.632403,284.674829 L200.465778,209.665908 L252.745336,183.895357 Z M263.242549,187.040011 L342.011794,279.706945 L245.873391,296.199652 L263.242549,187.040011 Z M271.62311,180.170837 L365.621917,182.869441 L348.964046,271.153932 L271.62311,180.170837 Z M285.671019,128.875061 L397.182388,25.2520184 L368.180254,169.766716 L285.671019,128.875061 Z M194.976252,198.280476 L132.646904,69.0876043 L266.781773,131.679602 L194.976252,198.280476 Z M191.517335,216.217271 L231.234656,298.602748 L76.60441,322.800972 L191.517335,216.217271 Z M345.264209,289.971676 L313.577542,442.381462 L247.324645,306.771042 L345.264209,289.971676 Z M376.251061,185.640528 L517.842966,253.852759 L359.013836,276.991614 L376.251061,185.640528 Z M397.285639,183.87863 L439.343322,185.25581 L496.733818,231.79 L397.285639,183.87863 Z M378.729092,172.87234 L405.975954,37.0946519 L434.731432,174.617512 L378.729092,172.87234 Z M278.087787,110.999599 L273.343964,122.920291 L191.517335,84.7383915 L278.087787,110.999599 Z M186.171214,205.132923 L160.777138,219.746643 L159.687263,215.325171 L135.658399,100.428208 L186.171214,205.132923 Z M233.047289,309.112806 L226.003258,371.080334 L85.3291421,332.229359 L233.047289,309.112806 Z M242.609504,321.964628 L297.458872,434.218743 L236.483262,375.942281 L242.609504,321.964628 Z M355.405777,295.012043 L403.050501,348.147776 L325.394076,439.365048 L355.405777,295.012043 Z M457.17711,185.841251 L530.697749,188.249922 L504.31705,224.062179 L457.17711,185.841251 Z M500.737673,176.674919 L445.991556,174.968776 L442.693252,159.184174 L500.737673,176.674919 Z M298.887181,89.6616709 L303.372875,79.1181587 L307.835624,82.4022035 L298.887181,89.6616709 Z M282.831609,99.5193809 L282.171948,101.074981 L281.609802,100.907712 L282.831609,99.5193809 Z M115.794002,257.543824 L128.734828,250.234176 L118.702246,260.850172 L115.794002,257.543824 Z M224.672464,381.79669 L213.92286,459.063741 L195.572815,373.756635 L224.672464,381.79669 Z M222.326366,478.143539 L234.705046,389.189973 L280.835417,433.276462 L222.326366,478.143539 Z M410.15763,356.282617 L477.420095,434.597886 L368.627676,405.180873 L410.15763,356.282617 Z M483.620907,425.197377 L418.050616,348.84473 L462.569121,316.51724 L483.620907,425.197377 Z" id="Shape" stroke="url(#linearGradient-1)" stroke-width="3" fill-rule="nonzero"></path>
            <rect id="Rectangle" fill="#000000" x="0" y="161" width="600" height="208"></rect>
        </g>
        <g id="Group" transform="translate(60.000000, 229.000000)" fill="#FFFFFF">
            <text id="undefined" font-family="lazer84" font-size="120" font-weight="normal" line-spacing="100" letter-spacing="-5">
                <tspan x="0" y="109">u</tspan>
                <tspan x="98.046875" y="121.984375" font-size="80">ndefined</tspan>
            </text>
            <text id="with-Jared-Palmer-&amp;" font-family="DINCondensed-Bold, DIN Condensed" font-size="40" font-style="condensed" font-weight="bold">
                <tspan x="7" y="161">WITH JARED PALMER &amp; KEN WHEELER</tspan>
            </text>
        </g>
    </g>
</svg>