
<svg width="600px" height="510px" viewBox="0 0 600 510" version="1.1" 
    xmlns="http://www.w3.org/2000/svg" 
    xmlns:xlink="http://www.w3.org/1999/xlink">
    <defs>
        <linearGradient x1="5.23903428%" y1="28.517151%" x2="101.895276%" y2="68.1390907%" id="linearGradient-1">
            <stop stop-color="#00FFF4" offset="0%"></stop>
            <stop stop-color="#DB00FF" offset="100%"></stop>
        </linearGradient>
    </defs>
    <g id="Page-1" stroke="none" stroke-width="1" fill="none" fill-rule="evenodd">
        <g id="final-copy" transform="translate(0.000000, -45.000000)">
            <g id="noun_1281796_cc" transform="translate(0.000000, 50.000000)">
                <path d="M512.760709,230.90905 L550,180.360409 L440.203749,147.280209 L409.40619,0 L316.474313,75.3936393 L300.223711,63.4339177 L270.217745,97.450823 L113.935479,50.0468353 L148.323888,214.494402 L99.640915,255.603506 L111.233738,268.756412 L50,333.550783 L183.658766,370.467015 L211.525136,500 L288.716931,440.809135 L316.112934,466.992283 L360.981346,414.174361 L499.923135,451.748517 L472.343574,309.41389 L544.739922,256.83572 L512.760709,230.90905 Z M410.932015,340.72104 L362.931648,287.195013 L515.16417,265.020741 L410.932015,340.72104 Z M279.039993,138.130604 L279.235023,137.645524 L348.407636,171.930059 L267.412753,169.409876 L279.039993,138.130604 Z M255.274993,170.697846 L223.92676,186.159062 L263.007365,149.906329 L255.274993,170.697846 Z M252.745336,183.895357 L236.632403,284.674829 L200.465778,209.665908 L252.745336,183.895357 Z M263.242549,187.040011 L342.011794,279.706945 L245.873391,296.199652 L263.242549,187.040011 Z M271.62311,180.170837 L365.621917,182.869441 L348.964046,271.153932 L271.62311,180.170837 Z M285.671019,128.875061 L397.182388,25.2520184 L368.180254,169.766716 L285.671019,128.875061 Z M194.976252,198.280476 L132.646904,69.0876043 L266.781773,131.679602 L194.976252,198.280476 Z M191.517335,216.217271 L231.234656,298.602748 L76.60441,322.800972 L191.517335,216.217271 Z M345.264209,289.971676 L313.577542,442.381462 L247.324645,306.771042 L345.264209,289.971676 Z M376.251061,185.640528 L517.842966,253.852759 L359.013836,276.991614 L376.251061,185.640528 Z M397.285639,183.87863 L439.343322,185.25581 L496.733818,231.79 L397.285639,183.87863 Z M378.729092,172.87234 L405.975954,37.0946519 L434.731432,174.617512 L378.729092,172.87234 Z M278.087787,110.999599 L273.343964,122.920291 L191.517335,84.7383915 L278.087787,110.999599 Z M186.171214,205.132923 L160.777138,219.746643 L159.687263,215.325171 L135.658399,100.428208 L186.171214,205.132923 Z M233.047289,309.112806 L226.003258,371.080334 L85.3291421,332.229359 L233.047289,309.112806 Z M242.609504,321.964628 L297.458872,434.218743 L236.483262,375.942281 L242.609504,321.964628 Z M355.405777,295.012043 L403.050501,348.147776 L325.394076,439.365048 L355.405777,295.012043 Z M457.17711,185.841251 L530.697749,188.249922 L504.31705,224.062179 L457.17711,185.841251 Z M500.737673,176.674919 L445.991556,174.968776 L442.693252,159.184174 L500.737673,176.674919 Z M298.887181,89.6616709 L303.372875,79.1181587 L307.835624,82.4022035 L298.887181,89.6616709 Z M282.831609,99.5193809 L282.171948,101.074981 L281.609802,100.907712 L282.831609,99.5193809 Z M115.794002,257.543824 L128.734828,250.234176 L118.702246,260.850172 L115.794002,257.543824 Z M224.672464,381.79669 L213.92286,459.063741 L195.572815,373.756635 L224.672464,381.79669 Z M222.326366,478.143539 L234.705046,389.189973 L280.835417,433.276462 L222.326366,478.143539 Z M410.15763,356.282617 L477.420095,434.597886 L368.627676,405.180873 L410.15763,356.282617 Z M483.620907,425.197377 L418.050616,348.84473 L462.569121,316.51724 L483.620907,425.197377 Z" id="Shape" stroke="url(#linearGradient-1)" stroke-width="5" fill-rule="nonzero"></path>
                <rect id="Rectangle" fill="#000000" x="0" y="171" width="600" height="208"></rect>
                <path d="M89.5898438,187.460938 L92.1679688,187.460938 C97.5976834,187.460938 102.031233,190.351534 105.46875,196.132812 L105.9375,198.183594 C105.9375,201.035171 102.187538,209.570241 94.6875,223.789062 C86.8358982,239.218827 82.9101562,253.359311 82.9101562,266.210938 L82.9101562,267.734375 C91.7383254,261.992159 98.9062225,255.000041 104.414062,246.757812 C117.382877,230.234292 125.058582,218.300818 127.441406,210.957031 L130.488281,204.335938 C131.503911,204.335938 132.011719,203.82813 132.011719,202.8125 L132.539062,202.285156 L133.59375,202.285156 L133.59375,204.335938 L134.0625,204.335938 C135.000005,198.554659 135.859371,195.664062 136.640625,195.664062 L137.167969,195.664062 L137.167969,197.714844 L137.636719,197.714844 L137.636719,193.613281 L138.691406,193.613281 L138.691406,195.136719 C139.90235,194.511716 141.425772,191.953147 143.261719,187.460938 L143.789062,187.460938 C147.187517,190.625016 148.886719,195.566373 148.886719,202.285156 C148.886719,224.785269 134.414207,250.351419 105.46875,278.984375 C99.9218473,282.421892 93.6133166,284.140625 86.5429688,284.140625 C73.4569658,284.140625 64.7461154,279.355517 60.4101562,269.785156 L59.4140625,263.632812 L59.4140625,261.113281 C59.4140625,247.675714 62.1484102,235.74224 67.6171875,225.3125 L80.9179688,194.082031 C83.8086082,189.667947 86.6992043,187.460938 89.5898438,187.460938 Z M201.582031,216.40625 L204.042969,216.40625 C207.167984,216.40625 209.746084,217.812486 211.777344,220.625 L211.777344,221.679688 L198.417969,256.09375 C195.136702,262.161489 191.855485,270.716091 188.574219,281.757812 L187.519531,282.8125 L186.464844,282.8125 L185.058594,281.757812 L184.707031,282.109375 L182.949219,282.109375 L181.191406,281.054688 L177.675781,281.40625 L174.863281,278.242188 L174.863281,275.78125 C174.863281,274.739578 175.683586,272.278665 177.324219,268.398438 L168.222656,246.640625 L165.410156,238.203125 L165.058594,238.203125 L150.996094,267.695312 C149.355461,271.054704 148.183597,274.921853 147.480469,279.296875 L147.832031,279.648438 L147.832031,280 C147.441404,281.875009 146.972659,282.8125 146.425781,282.8125 L145.371094,282.8125 L141.855469,280.703125 L141.152344,280.703125 L139.746094,281.054688 L138.691406,280.703125 L137.988281,281.40625 L137.636719,281.054688 L137.285156,281.054688 L136.933594,281.40625 L133.769531,277.1875 L133.769531,275.78125 C133.769531,271.562479 139.277289,258.685004 150.292969,237.148438 L158.730469,219.21875 C160.006517,218.20312 163.977831,217.500002 170.644531,217.109375 C172.233081,217.109375 173.873689,218.281238 175.566406,220.625 L175.566406,220.976562 C175.566406,227.617221 178.613251,237.447852 184.707031,250.46875 C187.988298,244.843722 191.621074,235.247464 195.605469,221.679688 C196.412764,218.632797 197.819,217.109375 199.824219,217.109375 C199.824219,216.692706 200.41015,216.458334 201.582031,216.40625 Z M236.699219,218.554688 L238.417969,218.554688 C247.350305,218.554688 255.683555,221.262994 263.417969,226.679688 C266.569026,229.726578 268.144531,232.656236 268.144531,235.46875 C268.144531,241.822948 261.503973,251.510352 248.222656,264.53125 C241.243455,269.661484 234.251337,273.723943 227.246094,276.71875 C219.22522,279.062512 214.264332,280.976555 212.363281,282.460938 L208.652344,282.109375 C204.459614,284.140635 201.868495,285.15625 200.878906,285.15625 L200.527344,284.804688 L201.542969,283.125 L201.230469,283.125 L199.199219,283.789062 L198.847656,281.757812 L199.511719,280.429688 L199.199219,280.429688 L197.519531,281.09375 L197.167969,280.742188 L197.167969,280.429688 L197.519531,279.414062 L197.167969,279.414062 L195.800781,279.765625 C195.123695,279.765625 194.785156,279.3099 194.785156,278.398438 C193.665359,278.242187 193.105469,277.903648 193.105469,277.382812 C194.095057,276.315099 195.566396,275.41667 197.519531,274.6875 C201.373717,271.744777 206.660123,262.500078 213.378906,246.953125 C217.441427,237.60412 219.472656,232.304694 219.472656,231.054688 C215.384094,231.054688 212.233084,228.359402 210.019531,222.96875 C210.019531,221.067699 218.912671,219.596359 236.699219,218.554688 Z M221.855469,263.867188 C240.996189,254.934851 250.566406,246.484415 250.566406,238.515625 C250.566406,233.281224 246.399781,230.013027 238.066406,228.710938 C236.399731,228.710938 235.162764,230.729146 234.355469,234.765625 L221.855469,263.867188 Z M309.238281,217.890625 C309.238281,218.776046 309.680985,219.21875 310.566406,219.21875 L310.566406,219.882812 L309.550781,219.882812 L309.550781,220.234375 C310.670579,220.234375 311.230469,220.455727 311.230469,220.898438 L311.230469,221.25 L309.902344,221.25 C309.902344,221.927087 310.5664,222.265625 311.894531,222.265625 L311.894531,222.929688 L310.878906,222.929688 L310.878906,223.242188 L314.902344,223.242188 L317.949219,224.921875 L317.597656,225.273438 L317.597656,225.585938 C318.717454,225.585938 319.277344,225.82031 319.277344,226.289062 C319.277344,227.096358 315.13676,227.981766 306.855469,228.945312 C304.042955,228.945312 298.691446,230.507797 290.800781,233.632812 L287.089844,241.015625 L287.441406,241.015625 C288.639329,240.572914 292.102836,240.234376 297.832031,240 L298.496094,241.015625 L297.480469,241.367188 L297.480469,241.679688 C299.277353,241.679688 300.175781,241.901039 300.175781,242.34375 L298.496094,243.046875 L298.496094,243.359375 L299.160156,243.359375 L298.847656,244.375 C298.847656,245.494797 299.733064,246.393226 301.503906,247.070312 L301.503906,247.382812 L301.191406,247.734375 L301.191406,248.046875 C302.311204,248.046875 302.871094,248.281248 302.871094,248.75 L302.871094,249.0625 C302.871094,249.739587 295.826893,251.523423 281.738281,254.414062 C279.993481,254.414062 277.75392,257.773404 275.019531,264.492188 L299.160156,260.46875 L299.160156,261.132812 L299.511719,261.132812 L301.191406,260.78125 C301.477866,261.901047 302.037756,262.460938 302.871094,262.460938 L302.871094,263.476562 C302.324216,263.476562 301.764326,263.815101 301.191406,264.492188 L300.488281,264.492188 L300.488281,264.804688 L302.519531,264.804688 L302.519531,265.507812 L300.839844,265.507812 L301.191406,265.820312 L301.191406,266.171875 L300.839844,266.484375 C304.147152,266.484375 305.930988,267.044265 306.191406,268.164062 L305.878906,268.515625 C306.998704,268.671876 307.558594,269.010414 307.558594,269.53125 C305.579417,270.807298 298.873755,272.473948 287.441406,274.53125 C274.029881,276.796886 267.324219,278.815095 267.324219,280.585938 C267.011717,281.757818 266.009123,282.760413 264.316406,283.59375 L263.964844,283.59375 L261.972656,281.914062 L261.269531,281.914062 L259.589844,282.265625 C259.589844,281.692705 258.483084,281.132815 256.269531,280.585938 L255.253906,280.898438 L254.902344,280.585938 L254.902344,280.234375 L255.253906,279.21875 L254.589844,279.21875 L254.238281,279.570312 L253.925781,279.570312 L253.574219,279.21875 L253.574219,278.90625 C255.423186,272.265592 263.691333,253.489738 278.378906,222.578125 C278.378906,220.33853 279.941391,218.997398 283.066406,218.554688 L296.152344,218.90625 L309.238281,217.890625 Z M361.425781,217.695312 C361.425781,218.085939 362.298168,218.580726 364.042969,219.179688 C364.042969,220.09115 364.654942,220.703123 365.878906,221.015625 L365.878906,221.40625 L365.527344,221.757812 L365.527344,222.148438 C366.49089,222.148438 366.972656,222.395831 366.972656,222.890625 L366.621094,223.242188 C367.792975,223.242188 369.264314,224.479154 371.035156,226.953125 C371.035156,227.942713 358.470178,229.661446 333.339844,232.109375 C330.839831,232.109375 329.238285,234.075501 328.535156,238.007812 C328.222655,238.007812 327.493495,239.856752 326.347656,243.554688 L326.699219,243.554688 L336.308594,242.851562 C337.428391,244.309903 338.287757,245.039062 338.886719,245.039062 L338.886719,246.914062 L339.628906,248.007812 L339.628906,248.359375 L338.535156,248.359375 L338.535156,248.75 L338.886719,248.75 L341.113281,248.359375 L343.339844,249.101562 L343.339844,249.492188 L342.949219,249.84375 L342.949219,250.234375 C344.433601,250.546877 345.175781,250.911456 345.175781,251.328125 C342.207016,253.697929 333.587311,256.289048 319.316406,259.101562 C311.165324,275.0131 306.360684,284.010406 304.902344,286.09375 C302.923167,286.09375 301.933594,286.45833 301.933594,287.1875 L301.582031,287.1875 L300.449219,286.445312 L300.839844,286.09375 L300.839844,284.609375 L300.097656,284.609375 C300.097656,285.338545 299.850263,285.703125 299.355469,285.703125 C299.095051,284.479161 298.470057,283.867188 297.480469,283.867188 L297.480469,284.21875 C297.324218,285.468756 296.959638,286.09375 296.386719,286.09375 L296.035156,285.703125 L295.644531,285.703125 L294.902344,286.445312 L293.417969,284.609375 C292.688798,284.609375 292.324219,284.231775 292.324219,283.476562 C292.324219,279.049457 296.139285,269.440178 303.769531,254.648438 C311.165402,239.856697 314.863281,229.635445 314.863281,223.984375 C316.816416,220.520816 318.665356,218.789062 320.410156,218.789062 L326.347656,220.273438 C339.602931,218.554679 351.295522,217.695312 361.425781,217.695312 Z M370.058594,218.671875 L372.207031,218.671875 C376.52997,218.671875 379.889311,220.585918 382.285156,224.414062 L382.285156,225.859375 C382.285156,226.536462 380.006533,230.611942 375.449219,238.085938 L359.628906,270.820312 C357.571604,274.596373 356.126306,276.75781 355.292969,277.304688 L354.941406,276.914062 L354.589844,276.914062 L353.847656,278.710938 L353.144531,278.710938 L353.847656,276.210938 L349.902344,282.695312 L349.550781,282.695312 L349.199219,282.34375 L349.199219,281.953125 L349.550781,281.601562 L349.550781,280.898438 L349.199219,280.898438 L347.753906,284.140625 L347.011719,284.140625 L347.011719,283.75 L347.753906,281.953125 L341.972656,286.640625 L340.917969,285.9375 L341.269531,285.546875 L341.269531,284.492188 L340.175781,285.195312 L339.472656,284.492188 C339.472656,281.34113 348.105382,260.833523 365.371094,222.96875 C366.412766,220.104152 367.97525,218.671875 370.058594,218.671875 Z M363.457031,265.46875 L363.457031,266.054688 L363.144531,266.054688 L363.144531,265.46875 L363.457031,265.46875 Z M434.355469,216.40625 L436.816406,216.40625 C439.941422,216.40625 442.519521,217.812486 444.550781,220.625 L444.550781,221.679688 L431.191406,256.09375 C427.91014,262.161489 424.628923,270.716091 421.347656,281.757812 L420.292969,282.8125 L419.238281,282.8125 L417.832031,281.757812 L417.480469,282.109375 L415.722656,282.109375 L413.964844,281.054688 L410.449219,281.40625 L407.636719,278.242188 L407.636719,275.78125 C407.636719,274.739578 408.457023,272.278665 410.097656,268.398438 L400.996094,246.640625 L398.183594,238.203125 L397.832031,238.203125 L383.769531,267.695312 C382.128898,271.054704 380.957035,274.921853 380.253906,279.296875 L380.605469,279.648438 L380.605469,280 C380.214842,281.875009 379.746096,282.8125 379.199219,282.8125 L378.144531,282.8125 L374.628906,280.703125 L373.925781,280.703125 L372.519531,281.054688 L371.464844,280.703125 L370.761719,281.40625 L370.410156,281.054688 L370.058594,281.054688 L369.707031,281.40625 L366.542969,277.1875 L366.542969,275.78125 C366.542969,271.562479 372.050726,258.685004 383.066406,237.148438 L391.503906,219.21875 C392.779954,218.20312 396.751269,217.500002 403.417969,217.109375 C405.006518,217.109375 406.647127,218.281238 408.339844,220.625 L408.339844,220.976562 C408.339844,227.617221 411.386688,237.447852 417.480469,250.46875 C420.761735,244.843722 424.394511,235.247464 428.378906,221.679688 C429.186202,218.632797 430.592438,217.109375 432.597656,217.109375 C432.597656,216.692706 433.183588,216.458334 434.355469,216.40625 Z M482.714844,217.890625 C482.714844,218.776046 483.157548,219.21875 484.042969,219.21875 L484.042969,219.882812 L483.027344,219.882812 L483.027344,220.234375 C484.147141,220.234375 484.707031,220.455727 484.707031,220.898438 L484.707031,221.25 L483.378906,221.25 C483.378906,221.927087 484.042962,222.265625 485.371094,222.265625 L485.371094,222.929688 L484.355469,222.929688 L484.355469,223.242188 L488.378906,223.242188 L491.425781,224.921875 L491.074219,225.273438 L491.074219,225.585938 C492.194016,225.585938 492.753906,225.82031 492.753906,226.289062 C492.753906,227.096358 488.613323,227.981766 480.332031,228.945312 C477.519517,228.945312 472.168008,230.507797 464.277344,233.632812 L460.566406,241.015625 L460.917969,241.015625 C462.115891,240.572914 465.579398,240.234376 471.308594,240 L471.972656,241.015625 L470.957031,241.367188 L470.957031,241.679688 C472.753915,241.679688 473.652344,241.901039 473.652344,242.34375 L471.972656,243.046875 L471.972656,243.359375 L472.636719,243.359375 L472.324219,244.375 C472.324219,245.494797 473.209627,246.393226 474.980469,247.070312 L474.980469,247.382812 L474.667969,247.734375 L474.667969,248.046875 C475.787766,248.046875 476.347656,248.281248 476.347656,248.75 L476.347656,249.0625 C476.347656,249.739587 469.303456,251.523423 455.214844,254.414062 C453.470043,254.414062 451.230482,257.773404 448.496094,264.492188 L472.636719,260.46875 L472.636719,261.132812 L472.988281,261.132812 L474.667969,260.78125 C474.954429,261.901047 475.514319,262.460938 476.347656,262.460938 L476.347656,263.476562 C475.800779,263.476562 475.240888,263.815101 474.667969,264.492188 L473.964844,264.492188 L473.964844,264.804688 L475.996094,264.804688 L475.996094,265.507812 L474.316406,265.507812 L474.667969,265.820312 L474.667969,266.171875 L474.316406,266.484375 C477.623714,266.484375 479.407551,267.044265 479.667969,268.164062 L479.355469,268.515625 C480.475266,268.671876 481.035156,269.010414 481.035156,269.53125 C479.05598,270.807298 472.350318,272.473948 460.917969,274.53125 C447.506443,276.796886 440.800781,278.815095 440.800781,280.585938 C440.48828,281.757818 439.485686,282.760413 437.792969,283.59375 L437.441406,283.59375 L435.449219,281.914062 L434.746094,281.914062 L433.066406,282.265625 C433.066406,281.692705 431.959646,281.132815 429.746094,280.585938 L428.730469,280.898438 L428.378906,280.585938 L428.378906,280.234375 L428.730469,279.21875 L428.066406,279.21875 L427.714844,279.570312 L427.402344,279.570312 L427.050781,279.21875 L427.050781,278.90625 C428.899749,272.265592 437.167895,253.489738 451.855469,222.578125 C451.855469,220.33853 453.417953,218.997398 456.542969,218.554688 L469.628906,218.90625 L482.714844,217.890625 Z M514.433594,218.554688 L516.152344,218.554688 C525.08468,218.554688 533.41793,221.262994 541.152344,226.679688 C544.303401,229.726578 545.878906,232.656236 545.878906,235.46875 C545.878906,241.822948 539.238348,251.510352 525.957031,264.53125 C518.97783,269.661484 511.985712,273.723943 504.980469,276.71875 C496.959595,279.062512 491.998707,280.976555 490.097656,282.460938 L486.386719,282.109375 C482.193989,284.140635 479.60287,285.15625 478.613281,285.15625 L478.261719,284.804688 L479.277344,283.125 L478.964844,283.125 L476.933594,283.789062 L476.582031,281.757812 L477.246094,280.429688 L476.933594,280.429688 L475.253906,281.09375 L474.902344,280.742188 L474.902344,280.429688 L475.253906,279.414062 L474.902344,279.414062 L473.535156,279.765625 C472.85807,279.765625 472.519531,279.3099 472.519531,278.398438 C471.399734,278.242187 470.839844,277.903648 470.839844,277.382812 C471.829432,276.315099 473.300771,275.41667 475.253906,274.6875 C479.108092,271.744777 484.394498,262.500078 491.113281,246.953125 C495.175802,237.60412 497.207031,232.304694 497.207031,231.054688 C493.118469,231.054688 489.967459,228.359402 487.753906,222.96875 C487.753906,221.067699 496.647046,219.596359 514.433594,218.554688 Z M499.589844,263.867188 C518.730564,254.934851 528.300781,246.484415 528.300781,238.515625 C528.300781,233.281224 524.134156,230.013027 515.800781,228.710938 C514.134106,228.710938 512.897139,230.729146 512.089844,234.765625 L499.589844,263.867188 Z" id="undefined" fill="#FFFFFF"></path>
                <path d="M90.08,311.52 L85.84,340 L82,340 L78.88,321.52 L78.8,321.52 L75.72,340 L71.88,340 L67.64,311.52 L71.96,311.52 L74,329.6 L74.08,329.6 L77.28,311.52 L80.4,311.52 L83.72,330.04 L83.8,330.04 L85.76,311.52 L90.08,311.52 Z M92.76,340 L92.76,311.52 L96.84,311.52 L96.84,340 L92.76,340 Z M103.48,340 L103.48,315.36 L98.76,315.36 L98.76,311.52 L112.28,311.52 L112.28,315.36 L107.56,315.36 L107.56,340 L103.48,340 Z M114.08,340 L114.08,311.52 L118.16,311.52 L118.16,323.72 L123.2,323.72 L123.2,311.52 L127.28,311.52 L127.28,340 L123.2,340 L123.2,327.32 L118.16,327.32 L118.16,340 L114.08,340 Z M148.04,311.52 L148.04,333.28 C148.04,335.226676 147.426673,336.853327 146.2,338.16 C145.586664,338.800003 144.860004,339.306665 144.02,339.68 C143.179996,340.053335 142.200006,340.24 141.08,340.24 C139.773327,340.24 138.686671,339.953336 137.82,339.38 C136.953329,338.806664 136.266669,338.240003 135.76,337.68 L138.96,335.12 C139.253335,335.413335 139.593331,335.659999 139.98,335.86 C140.366669,336.060001 140.773331,336.16 141.2,336.16 C141.440001,336.16 141.719998,336.113334 142.04,336.02 C142.360002,335.926666 142.666665,335.746668 142.96,335.48 C143.253335,335.239999 143.493332,334.900002 143.68,334.46 C143.866668,334.019998 143.96,333.440004 143.96,332.72 L143.96,311.52 L148.04,311.52 Z M160.12,330.04 L158.12,319.72 L158.04,319.72 L156.04,330.04 L160.12,330.04 Z M150.04,340 L156.4,311.52 L159.8,311.52 L166.16,340 L162.08,340 L160.88,333.88 L155.32,333.88 L154.12,340 L150.04,340 Z M172.24,315.36 L172.24,324.24 L174.56,324.24 C175.280004,324.24 175.853331,324.140001 176.28,323.94 C176.706669,323.739999 177.039999,323.453335 177.28,323.08 C177.493334,322.706665 177.64,322.246669 177.72,321.7 C177.8,321.153331 177.84,320.520004 177.84,319.8 C177.84,319.079996 177.8,318.446669 177.72,317.9 C177.64,317.353331 177.480001,316.880002 177.24,316.48 C176.733331,315.73333 175.77334,315.36 174.36,315.36 L172.24,315.36 Z M168.16,340 L168.16,311.52 L174.72,311.52 C179.520024,311.52 181.92,314.306639 181.92,319.88 C181.92,321.560008 181.660003,322.986661 181.14,324.16 C180.619997,325.333339 179.706673,326.279996 178.4,327 L182.8,340 L178.48,340 L174.68,327.84 L172.24,327.84 L172.24,340 L168.16,340 Z M185.2,340 L185.2,311.52 L197.36,311.52 L197.36,315.36 L189.28,315.36 L189.28,323.72 L196.32,323.72 L196.32,327.56 L189.28,327.56 L189.28,335.92 L197.36,335.92 L197.36,340 L185.2,340 Z M200,340 L200,311.52 L206.04,311.52 C208.386678,311.52 210.166661,312.159994 211.38,313.44 C212.593339,314.720006 213.2,316.533322 213.2,318.88 L213.2,332.2 C213.2,334.86668 212.55334,336.833327 211.26,338.1 C209.96666,339.366673 208.106679,340 205.68,340 L200,340 Z M204.08,315.36 L204.08,336.16 L205.96,336.16 C207.106672,336.16 207.919998,335.873336 208.4,335.3 C208.880002,334.726664 209.12,333.826673 209.12,332.6 L209.12,318.88 C209.12,317.759994 208.893336,316.893336 208.44,316.28 C207.986664,315.666664 207.160006,315.36 205.96,315.36 L204.08,315.36 Z M224.48,340 L224.48,311.52 L230.6,311.52 C231.720006,311.52 232.706662,311.666665 233.56,311.96 C234.413338,312.253335 235.186663,312.77333 235.88,313.52 C236.573337,314.26667 237.053332,315.139995 237.32,316.14 C237.586668,317.140005 237.72,318.493325 237.72,320.2 C237.72,321.480006 237.646667,322.559996 237.5,323.44 C237.353333,324.320004 237.040002,325.146663 236.56,325.92 C235.999997,326.853338 235.253338,327.579997 234.32,328.1 C233.386662,328.620003 232.160008,328.88 230.64,328.88 L228.56,328.88 L228.56,340 L224.48,340 Z M228.56,315.36 L228.56,325.04 L230.52,325.04 C231.346671,325.04 231.986664,324.920001 232.44,324.68 C232.893336,324.439999 233.226666,324.106669 233.44,323.68 C233.653334,323.279998 233.78,322.78667 233.82,322.2 C233.86,321.61333 233.88,320.960004 233.88,320.24 C233.88,319.57333 233.866667,318.940003 233.84,318.34 C233.813333,317.739997 233.693334,317.213336 233.48,316.76 C233.266666,316.306664 232.946669,315.960001 232.52,315.72 C232.093331,315.479999 231.480004,315.36 230.68,315.36 L228.56,315.36 Z M249,330.04 L247,319.72 L246.92,319.72 L244.92,330.04 L249,330.04 Z M238.92,340 L245.28,311.52 L248.68,311.52 L255.04,340 L250.96,340 L249.76,333.88 L244.2,333.88 L243,340 L238.92,340 Z M257.04,340 L257.04,311.52 L261.12,311.52 L261.12,335.92 L269.2,335.92 L269.2,340 L257.04,340 Z M271.84,340 L271.84,311.52 L275.76,311.52 L281,326.6 L281.08,326.6 L286.28,311.52 L290.24,311.52 L290.24,340 L286.16,340 L286.16,322.68 L286.08,322.68 L282.04,334.92 L280,334.92 L276,322.68 L275.92,322.68 L275.92,340 L271.84,340 Z M294.08,340 L294.08,311.52 L306.24,311.52 L306.24,315.36 L298.16,315.36 L298.16,323.72 L305.2,323.72 L305.2,327.56 L298.16,327.56 L298.16,335.92 L306.24,335.92 L306.24,340 L294.08,340 Z M312.96,315.36 L312.96,324.24 L315.28,324.24 C316.000004,324.24 316.573331,324.140001 317,323.94 C317.426669,323.739999 317.759999,323.453335 318,323.08 C318.213334,322.706665 318.36,322.246669 318.44,321.7 C318.52,321.153331 318.56,320.520004 318.56,319.8 C318.56,319.079996 318.52,318.446669 318.44,317.9 C318.36,317.353331 318.200001,316.880002 317.96,316.48 C317.453331,315.73333 316.49334,315.36 315.08,315.36 L312.96,315.36 Z M308.88,340 L308.88,311.52 L315.44,311.52 C320.240024,311.52 322.64,314.306639 322.64,319.88 C322.64,321.560008 322.380003,322.986661 321.86,324.16 C321.339997,325.333339 320.426673,326.279996 319.12,327 L323.52,340 L319.2,340 L315.4,327.84 L312.96,327.84 L312.96,340 L308.88,340 Z M345.56,340 L344.2,337.84 C343.399996,338.640004 342.573338,339.239998 341.72,339.64 C340.866662,340.040002 339.880006,340.24 338.76,340.24 C337.959996,340.24 337.200004,340.080002 336.48,339.76 C335.759996,339.439998 335.133336,338.98667 334.6,338.4 C334.066664,337.839997 333.646668,337.153337 333.34,336.34 C333.033332,335.526663 332.88,334.626672 332.88,333.64 C332.88,332.066659 333.25333,330.693339 334,329.52 C334.74667,328.346661 335.679994,327.253338 336.8,326.24 C336.079996,325.226662 335.486669,324.180005 335.02,323.1 C334.553331,322.019995 334.32,320.880006 334.32,319.68 C334.32,318.93333 334.439999,318.220003 334.68,317.54 C334.920001,316.859997 335.266664,316.266669 335.72,315.76 C336.173336,315.279998 336.746663,314.893335 337.44,314.6 C338.133337,314.306665 338.946662,314.16 339.88,314.16 C340.760004,314.16 341.53333,314.299999 342.2,314.58 C342.86667,314.860001 343.426664,315.226664 343.88,315.68 C344.813338,316.666672 345.28,317.879993 345.28,319.32 C345.28,320.680007 344.866671,321.959994 344.04,323.16 C343.213329,324.360006 342.240006,325.466662 341.12,326.48 C341.386668,326.853335 341.659999,327.279998 341.94,327.76 C342.220001,328.240002 342.533332,328.746664 342.88,329.28 C343.54667,330.426672 344.21333,331.479995 344.88,332.44 L347.08,329.44 L349.6,331.2 L346.56,335.12 L349.64,340 L345.56,340 Z M336.48,333.44 C336.48,334.426672 336.766664,335.27333 337.34,335.98 C337.913336,336.68667 338.639996,337.04 339.52,337.04 C340.133336,337.04 340.719997,336.846669 341.28,336.46 C341.840003,336.073331 342.266665,335.693335 342.56,335.32 L338.64,329.08 C338.026664,329.693336 337.513335,330.35333 337.1,331.06 C336.686665,331.76667 336.48,332.559996 336.48,333.44 Z M337.92,319.76 C337.92,320.373336 338.066665,321.03333 338.36,321.74 C338.653335,322.44667 339.026664,323.159996 339.48,323.88 C339.720001,323.639999 339.986665,323.366668 340.28,323.06 C340.573335,322.753332 340.839999,322.413335 341.08,322.04 C341.320001,321.666665 341.519999,321.260002 341.68,320.82 C341.840001,320.379998 341.92,319.906669 341.92,319.4 C341.92,318.893331 341.746668,318.426669 341.4,318 C341.053332,317.573331 340.573336,317.36 339.96,317.36 C339.346664,317.36 338.853335,317.606664 338.48,318.1 C338.106665,318.593336 337.92,319.146664 337.92,319.76 Z M360.04,340 L360.04,311.52 L364.12,311.52 L364.12,324.52 L364.2,324.52 L370.16,311.52 L374.24,311.52 L368.68,322.92 L375.28,340 L370.96,340 L366.32,327.36 L364.12,331.48 L364.12,340 L360.04,340 Z M377.08,340 L377.08,311.52 L389.24,311.52 L389.24,315.36 L381.16,315.36 L381.16,323.72 L388.2,323.72 L388.2,327.56 L381.16,327.56 L381.16,335.92 L389.24,335.92 L389.24,340 L377.08,340 Z M391.72,340 L391.72,311.52 L395.64,311.52 L401.8,328.68 L401.88,328.68 L401.88,311.52 L405.96,311.52 L405.96,340 L402.12,340 L395.88,322.88 L395.8,322.88 L395.8,340 L391.72,340 Z M438.24,311.52 L434,340 L430.16,340 L427.04,321.52 L426.96,321.52 L423.88,340 L420.04,340 L415.8,311.52 L420.12,311.52 L422.16,329.6 L422.24,329.6 L425.44,311.52 L428.56,311.52 L431.88,330.04 L431.96,330.04 L433.92,311.52 L438.24,311.52 Z M440.8,340 L440.8,311.52 L444.88,311.52 L444.88,323.72 L449.92,323.72 L449.92,311.52 L454,311.52 L454,340 L449.92,340 L449.92,327.32 L444.88,327.32 L444.88,340 L440.8,340 Z M457.84,340 L457.84,311.52 L470,311.52 L470,315.36 L461.92,315.36 L461.92,323.72 L468.96,323.72 L468.96,327.56 L461.92,327.56 L461.92,335.92 L470,335.92 L470,340 L457.84,340 Z M472.64,340 L472.64,311.52 L484.8,311.52 L484.8,315.36 L476.72,315.36 L476.72,323.72 L483.76,323.72 L483.76,327.56 L476.72,327.56 L476.72,335.92 L484.8,335.92 L484.8,340 L472.64,340 Z M487.44,340 L487.44,311.52 L491.52,311.52 L491.52,335.92 L499.6,335.92 L499.6,340 L487.44,340 Z M502.24,340 L502.24,311.52 L514.4,311.52 L514.4,315.36 L506.32,315.36 L506.32,323.72 L513.36,323.72 L513.36,327.56 L506.32,327.56 L506.32,335.92 L514.4,335.92 L514.4,340 L502.24,340 Z M521.12,315.36 L521.12,324.24 L523.44,324.24 C524.160004,324.24 524.733331,324.140001 525.16,323.94 C525.586669,323.739999 525.919999,323.453335 526.16,323.08 C526.373334,322.706665 526.52,322.246669 526.6,321.7 C526.68,321.153331 526.72,320.520004 526.72,319.8 C526.72,319.079996 526.68,318.446669 526.6,317.9 C526.52,317.353331 526.360001,316.880002 526.12,316.48 C525.613331,315.73333 524.65334,315.36 523.24,315.36 L521.12,315.36 Z M517.04,340 L517.04,311.52 L523.6,311.52 C528.400024,311.52 530.8,314.306639 530.8,319.88 C530.8,321.560008 530.540003,322.986661 530.02,324.16 C529.499997,325.333339 528.586673,326.279996 527.28,327 L531.68,340 L527.36,340 L523.56,327.84 L521.12,327.84 L521.12,340 L517.04,340 Z" id="with-Jared-Palmer-&amp;" fill="#FFFFFF"></path>
            </g>
        </g>
    </g>
</svg>